<svg xmlns="http://www.w3.org/2000/svg" version="1.1" viewBox="331 300.11 362 422.89">
	<path
		d="M 477.899 301.097 C 427.860 304.299, 381.132 315.708, 339.750 334.828 L 331 338.871 331 402.762 C 331 469.521, 331.396 478.189, 335.558 502.605 C 342.766 544.889, 362.189 588.819, 389.230 624 L 396.532 633.500 410.516 633.788 C 449.325 634.586, 489.988 623.377, 520.750 603.402 C 525.288 600.456, 529 598.299, 529 598.609 C 529 599.953, 518.497 614.142, 512.281 621.194 C 495.917 639.762, 473.950 656.751, 450.500 668.976 C 445 671.844, 440.153 674.517, 439.728 674.916 C 438.655 675.928, 453.654 687.622, 470.149 698.634 C 485.238 708.707, 509.773 723, 511.976 723 C 513.599 723, 537.314 709.400, 549.805 701.306 C 601.604 667.741, 639.796 626.008, 664.019 576.500 C 675.924 552.168, 682.733 532.175, 687.613 507.216 C 692.612 481.652, 693 474.242, 693 404.269 L 693 339.025 686.250 335.636 C 657.885 321.395, 610.424 308.006, 572.500 303.546 C 543.061 300.084, 507.934 299.175, 477.899 301.097 M 480 355.075 C 455.074 356.777, 425.117 361.867, 403.500 368.073 C 391.244 371.591, 386.460 373.726, 383.500 376.998 C 381.580 379.120, 381.489 380.809, 381.235 419.354 C 380.983 457.668, 381.060 459.645, 382.922 462.670 C 385.241 466.438, 383.678 465.261, 440.500 506.021 C 465.250 523.775, 489.892 541.570, 495.260 545.564 C 506.108 553.637, 510.126 554.991, 516.569 552.744 C 518.731 551.990, 543.225 534.963, 571 514.906 C 598.775 494.849, 625.321 475.732, 629.990 472.425 C 643.964 462.527, 643 466.312, 643 421.320 C 643 380.101, 642.776 378.065, 637.856 374.605 C 634.680 372.372, 615.915 366.371, 603 363.459 C 588.637 360.220, 560.497 356.271, 543 355.040 C 526.609 353.887, 497.158 353.903, 480 355.075 M 476.500 385.073 C 453.888 387.161, 431.001 391.138, 416.051 395.577 L 411 397.077 411 422.364 C 411 447.325, 411.029 447.677, 413.250 449.663 C 414.488 450.769, 431.925 463.464, 452 477.873 C 472.075 492.282, 490.637 505.673, 493.250 507.631 L 498 511.192 498 482.537 C 498 459.889, 497.738 454.036, 496.750 454.615 C 496.063 455.018, 492.937 457.070, 489.805 459.174 C 486.673 461.278, 483.860 463, 483.555 463 C 483.250 463, 483 457.838, 483 451.529 L 483 440.059 496.617 429.279 C 504.106 423.351, 510.861 418.500, 511.628 418.500 C 512.395 418.500, 519.318 423.374, 527.011 429.331 L 541 440.163 541 451.581 C 541 457.862, 540.761 463, 540.469 463 C 540.176 463, 536.914 460.972, 533.219 458.492 L 526.500 453.985 526.234 481.643 C 526.088 496.855, 526.175 509.508, 526.428 509.762 C 526.682 510.015, 538.726 501.707, 553.194 491.299 C 567.662 480.891, 587.029 467.004, 596.230 460.438 L 612.960 448.500 612.980 422.886 L 613 397.273 603.750 394.669 C 593.655 391.828, 577.382 388.763, 559.775 386.386 C 546.234 384.558, 491.434 383.694, 476.500 385.073"
		stroke="none" fill="#4174f2" fill-rule="evenodd" />
</svg>